<svg id="visual" viewBox="0 0 900 450" width="900" height="450" xmlns="http://www.w3.org/2000/svg" xmlns:xlink="http://www.w3.org/1999/xlink" version="1.1"><rect x="0" y="0" width="900" height="450" fill="#022A50"></rect><path d="M0 301L21.5 299C43 297 86 293 128.8 290.8C171.7 288.7 214.3 288.3 257.2 290.8C300 293.3 343 298.7 385.8 302.3C428.7 306 471.3 308 514.2 314.7C557 321.3 600 332.7 642.8 327.7C685.7 322.7 728.3 301.3 771.2 292.2C814 283 857 286 878.5 287.5L900 289L900 451L878.5 451C857 451 814 451 771.2 451C728.3 451 685.7 451 642.8 451C600 451 557 451 514.2 451C471.3 451 428.7 451 385.8 451C343 451 300 451 257.2 451C214.3 451 171.7 451 128.8 451C86 451 43 451 21.5 451L0 451Z" fill="#ba4b07"></path><path d="M0 302L21.5 305.7C43 309.3 86 316.7 128.8 320.8C171.7 325 214.3 326 257.2 324.5C300 323 343 319 385.8 322.5C428.7 326 471.3 337 514.2 341.8C557 346.7 600 345.3 642.8 345.5C685.7 345.7 728.3 347.3 771.2 348.5C814 349.7 857 350.3 878.5 350.7L900 351L900 451L878.5 451C857 451 814 451 771.2 451C728.3 451 685.7 451 642.8 451C600 451 557 451 514.2 451C471.3 451 428.7 451 385.8 451C343 451 300 451 257.2 451C214.3 451 171.7 451 128.8 451C86 451 43 451 21.5 451L0 451Z" fill="#f36102"></path><path d="M0 338L21.5 341.3C43 344.7 86 351.3 128.8 355.2C171.7 359 214.3 360 257.2 356.2C300 352.3 343 343.7 385.8 337.7C428.7 331.7 471.3 328.3 514.2 334.2C557 340 600 355 642.8 359.5C685.7 364 728.3 358 771.2 350.2C814 342.3 857 332.7 878.5 327.8L900 323L900 451L878.5 451C857 451 814 451 771.2 451C728.3 451 685.7 451 642.8 451C600 451 557 451 514.2 451C471.3 451 428.7 451 385.8 451C343 451 300 451 257.2 451C214.3 451 171.7 451 128.8 451C86 451 43 451 21.5 451L0 451Z" fill="#ff8a3f"></path><path d="M0 391L21.5 383.2C43 375.3 86 359.7 128.8 353.2C171.7 346.7 214.3 349.3 257.2 352.3C300 355.3 343 358.7 385.8 364.8C428.7 371 471.3 380 514.2 380.7C557 381.3 600 373.7 642.8 374C685.7 374.3 728.3 382.7 771.2 385.2C814 387.7 857 384.3 878.5 382.7L900 381L900 451L878.5 451C857 451 814 451 771.2 451C728.3 451 685.7 451 642.8 451C600 451 557 451 514.2 451C471.3 451 428.7 451 385.8 451C343 451 300 451 257.2 451C214.3 451 171.7 451 128.8 451C86 451 43 451 21.5 451L0 451Z" fill="#ff9a57"></path><path d="M0 397L21.5 392C43 387 86 377 128.8 373.3C171.7 369.7 214.3 372.3 257.2 379.2C300 386 343 397 385.8 402C428.7 407 471.3 406 514.2 399.8C557 393.7 600 382.3 642.8 382.8C685.7 383.3 728.3 395.7 771.2 396.8C814 398 857 388 878.5 383L900 378L900 451L878.5 451C857 451 814 451 771.2 451C728.3 451 685.7 451 642.8 451C600 451 557 451 514.2 451C471.3 451 428.7 451 385.8 451C343 451 300 451 257.2 451C214.3 451 171.7 451 128.8 451C86 451 43 451 21.5 451L0 451Z" fill="#ff8a3f"></path><path d="M0 389L21.5 393.7C43 398.3 86 407.7 128.8 410.5C171.7 413.3 214.3 409.7 257.2 406.3C300 403 343 400 385.8 398C428.7 396 471.3 395 514.2 399.5C557 404 600 414 642.8 414.2C685.7 414.3 728.3 404.7 771.2 404.5C814 404.3 857 413.7 878.5 418.3L900 423L900 451L878.5 451C857 451 814 451 771.2 451C728.3 451 685.7 451 642.8 451C600 451 557 451 514.2 451C471.3 451 428.7 451 385.8 451C343 451 300 451 257.2 451C214.3 451 171.7 451 128.8 451C86 451 43 451 21.5 451L0 451Z" fill="#f36102"></path><path d="M0 409L21.5 413.2C43 417.3 86 425.7 128.8 430.2C171.7 434.7 214.3 435.3 257.2 436.7C300 438 343 440 385.8 440.5C428.7 441 471.3 440 514.2 436.5C557 433 600 427 642.8 426.2C685.7 425.3 728.3 429.7 771.2 429C814 428.3 857 422.7 878.5 419.8L900 417L900 451L878.5 451C857 451 814 451 771.2 451C728.3 451 685.7 451 642.8 451C600 451 557 451 514.2 451C471.3 451 428.7 451 385.8 451C343 451 300 451 257.2 451C214.3 451 171.7 451 128.8 451C86 451 43 451 21.5 451L0 451Z" fill="#ba4b07"></path></svg>