<svg id="visual" viewBox="0 0 900 450" width="900" height="450" xmlns="http://www.w3.org/2000/svg" xmlns:xlink="http://www.w3.org/1999/xlink" version="1.1"><rect x="0" y="0" width="900" height="450" fill="#022A50"></rect><path d="M0 317L21.5 319.3C43 321.7 86 326.3 128.8 320.7C171.7 315 214.3 299 257.2 290.7C300 282.3 343 281.7 385.8 288C428.7 294.3 471.3 307.7 514.2 311.8C557 316 600 311 642.8 310.3C685.7 309.7 728.3 313.3 771.2 310C814 306.7 857 296.3 878.5 291.2L900 286L900 451L878.5 451C857 451 814 451 771.2 451C728.3 451 685.7 451 642.8 451C600 451 557 451 514.2 451C471.3 451 428.7 451 385.8 451C343 451 300 451 257.2 451C214.3 451 171.7 451 128.8 451C86 451 43 451 21.5 451L0 451Z" fill="#f19b61"></path><path d="M0 358L21.5 351.3C43 344.7 86 331.3 128.8 329.7C171.7 328 214.3 338 257.2 343.5C300 349 343 350 385.8 347.3C428.7 344.7 471.3 338.3 514.2 332.3C557 326.3 600 320.7 642.8 319.3C685.7 318 728.3 321 771.2 327.8C814 334.7 857 345.3 878.5 350.7L900 356L900 451L878.5 451C857 451 814 451 771.2 451C728.3 451 685.7 451 642.8 451C600 451 557 451 514.2 451C471.3 451 428.7 451 385.8 451C343 451 300 451 257.2 451C214.3 451 171.7 451 128.8 451C86 451 43 451 21.5 451L0 451Z" fill="#f49354"></path><path d="M0 346L21.5 349.5C43 353 86 360 128.8 360.2C171.7 360.3 214.3 353.7 257.2 347.2C300 340.7 343 334.3 385.8 331.3C428.7 328.3 471.3 328.7 514.2 333.8C557 339 600 349 642.8 350.7C685.7 352.3 728.3 345.7 771.2 344.2C814 342.7 857 346.3 878.5 348.2L900 350L900 451L878.5 451C857 451 814 451 771.2 451C728.3 451 685.7 451 642.8 451C600 451 557 451 514.2 451C471.3 451 428.7 451 385.8 451C343 451 300 451 257.2 451C214.3 451 171.7 451 128.8 451C86 451 43 451 21.5 451L0 451Z" fill="#f78b46"></path><path d="M0 348L21.5 355.3C43 362.7 86 377.3 128.8 384.5C171.7 391.7 214.3 391.3 257.2 387.3C300 383.3 343 375.7 385.8 371.5C428.7 367.3 471.3 366.7 514.2 365C557 363.3 600 360.7 642.8 364.7C685.7 368.7 728.3 379.3 771.2 384.8C814 390.3 857 390.7 878.5 390.8L900 391L900 451L878.5 451C857 451 814 451 771.2 451C728.3 451 685.7 451 642.8 451C600 451 557 451 514.2 451C471.3 451 428.7 451 385.8 451C343 451 300 451 257.2 451C214.3 451 171.7 451 128.8 451C86 451 43 451 21.5 451L0 451Z" fill="#f98339"></path><path d="M0 392L21.5 393.8C43 395.7 86 399.3 128.8 395.8C171.7 392.3 214.3 381.7 257.2 376.2C300 370.7 343 370.3 385.8 375.7C428.7 381 471.3 392 514.2 394.5C557 397 600 391 642.8 389.5C685.7 388 728.3 391 771.2 389.8C814 388.7 857 383.3 878.5 380.7L900 378L900 451L878.5 451C857 451 814 451 771.2 451C728.3 451 685.7 451 642.8 451C600 451 557 451 514.2 451C471.3 451 428.7 451 385.8 451C343 451 300 451 257.2 451C214.3 451 171.7 451 128.8 451C86 451 43 451 21.5 451L0 451Z" fill="#fb7a2a"></path><path d="M0 393L21.5 397C43 401 86 409 128.8 414.7C171.7 420.3 214.3 423.7 257.2 423C300 422.3 343 417.7 385.8 411C428.7 404.3 471.3 395.7 514.2 392.3C557 389 600 391 642.8 392C685.7 393 728.3 393 771.2 396.3C814 399.7 857 406.3 878.5 409.7L900 413L900 451L878.5 451C857 451 814 451 771.2 451C728.3 451 685.7 451 642.8 451C600 451 557 451 514.2 451C471.3 451 428.7 451 385.8 451C343 451 300 451 257.2 451C214.3 451 171.7 451 128.8 451C86 451 43 451 21.5 451L0 451Z" fill="#fd701a"></path><path d="M0 439L21.5 434.3C43 429.7 86 420.3 128.8 415.3C171.7 410.3 214.3 409.7 257.2 413.2C300 416.7 343 424.3 385.8 424.3C428.7 424.3 471.3 416.7 514.2 413.5C557 410.3 600 411.7 642.8 413.7C685.7 415.7 728.3 418.3 771.2 423.3C814 428.3 857 435.7 878.5 439.3L900 443L900 451L878.5 451C857 451 814 451 771.2 451C728.3 451 685.7 451 642.8 451C600 451 557 451 514.2 451C471.3 451 428.7 451 385.8 451C343 451 300 451 257.2 451C214.3 451 171.7 451 128.8 451C86 451 43 451 21.5 451L0 451Z" fill="#ff6600"></path></svg>