<svg id="visual" viewBox="0 0 900 450" width="900" height="450" xmlns="http://www.w3.org/2000/svg" xmlns:xlink="http://www.w3.org/1999/xlink" version="1.1"><rect x="0" y="0" width="900" height="450" fill="#022A50"></rect><path d="M0 266L15 267.7C30 269.3 60 272.7 90 265.8C120 259 150 242 180 246.8C210 251.7 240 278.3 270 276.3C300 274.3 330 243.7 360 233.5C390 223.3 420 233.7 450 252.3C480 271 510 298 540 295C570 292 600 259 630 259.3C660 259.7 690 293.3 720 300.3C750 307.3 780 287.7 810 283.8C840 280 870 292 885 298L900 304L900 451L885 451C870 451 840 451 810 451C780 451 750 451 720 451C690 451 660 451 630 451C600 451 570 451 540 451C510 451 480 451 450 451C420 451 390 451 360 451C330 451 300 451 270 451C240 451 210 451 180 451C150 451 120 451 90 451C60 451 30 451 15 451L0 451Z" fill="#ff6600"></path><path d="M0 313L15 311.2C30 309.3 60 305.7 90 301C120 296.3 150 290.7 180 295C210 299.3 240 313.7 270 314.5C300 315.3 330 302.7 360 304C390 305.3 420 320.7 450 321.8C480 323 510 310 540 313C570 316 600 335 630 329.2C660 323.3 690 292.7 720 284.5C750 276.3 780 290.7 810 289.3C840 288 870 271 885 262.5L900 254L900 451L885 451C870 451 840 451 810 451C780 451 750 451 720 451C690 451 660 451 630 451C600 451 570 451 540 451C510 451 480 451 450 451C420 451 390 451 360 451C330 451 300 451 270 451C240 451 210 451 180 451C150 451 120 451 90 451C60 451 30 451 15 451L0 451Z" fill="#be3d0a"></path><path d="M0 307L15 304.5C30 302 60 297 90 294.8C120 292.7 150 293.3 180 294C210 294.7 240 295.3 270 305.2C300 315 330 334 360 343.7C390 353.3 420 353.7 450 349.8C480 346 510 338 540 339.5C570 341 600 352 630 348.2C660 344.3 690 325.7 720 325.5C750 325.3 780 343.7 810 355.2C840 366.7 870 371.3 885 373.7L900 376L900 451L885 451C870 451 840 451 810 451C780 451 750 451 720 451C690 451 660 451 630 451C600 451 570 451 540 451C510 451 480 451 450 451C420 451 390 451 360 451C330 451 300 451 270 451C240 451 210 451 180 451C150 451 120 451 90 451C60 451 30 451 15 451L0 451Z" fill="#982709"></path><path d="M0 338L15 349C30 360 60 382 90 388.7C120 395.3 150 386.7 180 386.7C210 386.7 240 395.3 270 390.8C300 386.3 330 368.7 360 364.2C390 359.7 420 368.3 450 375.2C480 382 510 387 540 392C570 397 600 402 630 394.5C660 387 690 367 720 359.8C750 352.7 780 358.3 810 360.8C840 363.3 870 362.7 885 362.3L900 362L900 451L885 451C870 451 840 451 810 451C780 451 750 451 720 451C690 451 660 451 630 451C600 451 570 451 540 451C510 451 480 451 450 451C420 451 390 451 360 451C330 451 300 451 270 451C240 451 210 451 180 451C150 451 120 451 90 451C60 451 30 451 15 451L0 451Z" fill="#be3d0a"></path><path d="M0 415L15 410.8C30 406.7 60 398.3 90 397C120 395.7 150 401.3 180 408.5C210 415.7 240 424.3 270 422.5C300 420.7 330 408.3 360 408.2C390 408 420 420 450 424.3C480 428.7 510 425.3 540 421.5C570 417.7 600 413.3 630 405.8C660 398.3 690 387.7 720 389C750 390.3 780 403.7 810 407.2C840 410.7 870 404.3 885 401.2L900 398L900 451L885 451C870 451 840 451 810 451C780 451 750 451 720 451C690 451 660 451 630 451C600 451 570 451 540 451C510 451 480 451 450 451C420 451 390 451 360 451C330 451 300 451 270 451C240 451 210 451 180 451C150 451 120 451 90 451C60 451 30 451 15 451L0 451Z" fill="#ff6600"></path></svg>