<svg id="visual" viewBox="0 0 900 450" width="900" height="450" xmlns="http://www.w3.org/2000/svg" xmlns:xlink="http://www.w3.org/1999/xlink" version="1.1"><rect x="0" y="0" width="900" height="450" fill="#022A50"></rect><path d="M0 204L18.8 204C37.7 204 75.3 204 112.8 203C150.3 202 187.7 200 225.2 180.8C262.7 161.7 300.3 125.3 337.8 112.8C375.3 100.3 412.7 111.7 450.2 125.5C487.7 139.3 525.3 155.7 562.8 148.8C600.3 142 637.7 112 675.2 96.7C712.7 81.3 750.3 80.7 787.8 100.3C825.3 120 862.7 160 881.3 180L900 200L900 451L881.3 451C862.7 451 825.3 451 787.8 451C750.3 451 712.7 451 675.2 451C637.7 451 600.3 451 562.8 451C525.3 451 487.7 451 450.2 451C412.7 451 375.3 451 337.8 451C300.3 451 262.7 451 225.2 451C187.7 451 150.3 451 112.8 451C75.3 451 37.7 451 18.8 451L0 451Z" fill="#ff6600"></path><path d="M0 212L18.8 200.5C37.7 189 75.3 166 112.8 165.3C150.3 164.7 187.7 186.3 225.2 203C262.7 219.7 300.3 231.3 337.8 237C375.3 242.7 412.7 242.3 450.2 224.8C487.7 207.3 525.3 172.7 562.8 162.8C600.3 153 637.7 168 675.2 183.8C712.7 199.7 750.3 216.3 787.8 210.7C825.3 205 862.7 177 881.3 163L900 149L900 451L881.3 451C862.7 451 825.3 451 787.8 451C750.3 451 712.7 451 675.2 451C637.7 451 600.3 451 562.8 451C525.3 451 487.7 451 450.2 451C412.7 451 375.3 451 337.8 451C300.3 451 262.7 451 225.2 451C187.7 451 150.3 451 112.8 451C75.3 451 37.7 451 18.8 451L0 451Z" fill="#d44a09"></path><path d="M0 181L18.8 179.8C37.7 178.7 75.3 176.3 112.8 186.3C150.3 196.3 187.7 218.7 225.2 221.5C262.7 224.3 300.3 207.7 337.8 211.2C375.3 214.7 412.7 238.3 450.2 246.7C487.7 255 525.3 248 562.8 234C600.3 220 637.7 199 675.2 189.5C712.7 180 750.3 182 787.8 195.3C825.3 208.7 862.7 233.3 881.3 245.7L900 258L900 451L881.3 451C862.7 451 825.3 451 787.8 451C750.3 451 712.7 451 675.2 451C637.7 451 600.3 451 562.8 451C525.3 451 487.7 451 450.2 451C412.7 451 375.3 451 337.8 451C300.3 451 262.7 451 225.2 451C187.7 451 150.3 451 112.8 451C75.3 451 37.7 451 18.8 451L0 451Z" fill="#a9310a"></path><path d="M0 280L18.8 283.8C37.7 287.7 75.3 295.3 112.8 295.3C150.3 295.3 187.7 287.7 225.2 281.3C262.7 275 300.3 270 337.8 265.7C375.3 261.3 412.7 257.7 450.2 266C487.7 274.3 525.3 294.7 562.8 297.3C600.3 300 637.7 285 675.2 276.8C712.7 268.7 750.3 267.3 787.8 271.5C825.3 275.7 862.7 285.3 881.3 290.2L900 295L900 451L881.3 451C862.7 451 825.3 451 787.8 451C750.3 451 712.7 451 675.2 451C637.7 451 600.3 451 562.8 451C525.3 451 487.7 451 450.2 451C412.7 451 375.3 451 337.8 451C300.3 451 262.7 451 225.2 451C187.7 451 150.3 451 112.8 451C75.3 451 37.7 451 18.8 451L0 451Z" fill="#982709"></path><path d="M0 322L18.8 322.5C37.7 323 75.3 324 112.8 325C150.3 326 187.7 327 225.2 323.8C262.7 320.7 300.3 313.3 337.8 306.7C375.3 300 412.7 294 450.2 291.8C487.7 289.7 525.3 291.3 562.8 294.7C600.3 298 637.7 303 675.2 308.2C712.7 313.3 750.3 318.7 787.8 324.5C825.3 330.3 862.7 336.7 881.3 339.8L900 343L900 451L881.3 451C862.7 451 825.3 451 787.8 451C750.3 451 712.7 451 675.2 451C637.7 451 600.3 451 562.8 451C525.3 451 487.7 451 450.2 451C412.7 451 375.3 451 337.8 451C300.3 451 262.7 451 225.2 451C187.7 451 150.3 451 112.8 451C75.3 451 37.7 451 18.8 451L0 451Z" fill="#a9310a"></path><path d="M0 366L18.8 363.5C37.7 361 75.3 356 112.8 356C150.3 356 187.7 361 225.2 360.7C262.7 360.3 300.3 354.7 337.8 346.8C375.3 339 412.7 329 450.2 331.2C487.7 333.3 525.3 347.7 562.8 349.5C600.3 351.3 637.7 340.7 675.2 340.2C712.7 339.7 750.3 349.3 787.8 356.5C825.3 363.7 862.7 368.3 881.3 370.7L900 373L900 451L881.3 451C862.7 451 825.3 451 787.8 451C750.3 451 712.7 451 675.2 451C637.7 451 600.3 451 562.8 451C525.3 451 487.7 451 450.2 451C412.7 451 375.3 451 337.8 451C300.3 451 262.7 451 225.2 451C187.7 451 150.3 451 112.8 451C75.3 451 37.7 451 18.8 451L0 451Z" fill="#d44a09"></path><path d="M0 417L18.8 414.5C37.7 412 75.3 407 112.8 403.3C150.3 399.7 187.7 397.3 225.2 397.3C262.7 397.3 300.3 399.7 337.8 398.5C375.3 397.3 412.7 392.7 450.2 389.5C487.7 386.3 525.3 384.7 562.8 388.3C600.3 392 637.7 401 675.2 402.8C712.7 404.7 750.3 399.3 787.8 395.2C825.3 391 862.7 388 881.3 386.5L900 385L900 451L881.3 451C862.7 451 825.3 451 787.8 451C750.3 451 712.7 451 675.2 451C637.7 451 600.3 451 562.8 451C525.3 451 487.7 451 450.2 451C412.7 451 375.3 451 337.8 451C300.3 451 262.7 451 225.2 451C187.7 451 150.3 451 112.8 451C75.3 451 37.7 451 18.8 451L0 451Z" fill="#ff6600"></path></svg>