<svg id="visual" viewBox="0 0 900 450" width="900" height="450" xmlns="http://www.w3.org/2000/svg" xmlns:xlink="http://www.w3.org/1999/xlink" version="1.1"><rect x="0" y="0" width="900" height="450" fill="#001220"></rect><path d="M0 300L21.5 303.5C43 307 86 314 128.8 300.7C171.7 287.3 214.3 253.7 257.2 254.8C300 256 343 292 385.8 311.5C428.7 331 471.3 334 514.2 331.5C557 329 600 321 642.8 304C685.7 287 728.3 261 771.2 255.2C814 249.3 857 263.7 878.5 270.8L900 278L900 0L878.5 0C857 0 814 0 771.2 0C728.3 0 685.7 0 642.8 0C600 0 557 0 514.2 0C471.3 0 428.7 0 385.8 0C343 0 300 0 257.2 0C214.3 0 171.7 0 128.8 0C86 0 43 0 21.5 0L0 0Z" fill="#dbe94d"></path><path d="M0 216L21.5 220C43 224 86 232 128.8 230.3C171.7 228.7 214.3 217.3 257.2 218.3C300 219.3 343 232.7 385.8 245.7C428.7 258.7 471.3 271.3 514.2 271.2C557 271 600 258 642.8 249C685.7 240 728.3 235 771.2 238.2C814 241.3 857 252.7 878.5 258.3L900 264L900 0L878.5 0C857 0 814 0 771.2 0C728.3 0 685.7 0 642.8 0C600 0 557 0 514.2 0C471.3 0 428.7 0 385.8 0C343 0 300 0 257.2 0C214.3 0 171.7 0 128.8 0C86 0 43 0 21.5 0L0 0Z" fill="#d9c830"></path><path d="M0 216L21.5 205.7C43 195.3 86 174.7 128.8 166.7C171.7 158.7 214.3 163.3 257.2 163C300 162.7 343 157.3 385.8 155.8C428.7 154.3 471.3 156.7 514.2 161.2C557 165.7 600 172.3 642.8 186.7C685.7 201 728.3 223 771.2 225.5C814 228 857 211 878.5 202.5L900 194L900 0L878.5 0C857 0 814 0 771.2 0C728.3 0 685.7 0 642.8 0C600 0 557 0 514.2 0C471.3 0 428.7 0 385.8 0C343 0 300 0 257.2 0C214.3 0 171.7 0 128.8 0C86 0 43 0 21.5 0L0 0Z" fill="#d3a816"></path><path d="M0 193L21.5 194.8C43 196.7 86 200.3 128.8 194.2C171.7 188 214.3 172 257.2 163.5C300 155 343 154 385.8 151.3C428.7 148.7 471.3 144.3 514.2 149.2C557 154 600 168 642.8 167.5C685.7 167 728.3 152 771.2 144.8C814 137.7 857 138.3 878.5 138.7L900 139L900 0L878.5 0C857 0 814 0 771.2 0C728.3 0 685.7 0 642.8 0C600 0 557 0 514.2 0C471.3 0 428.7 0 385.8 0C343 0 300 0 257.2 0C214.3 0 171.7 0 128.8 0C86 0 43 0 21.5 0L0 0Z" fill="#c98802"></path><path d="M0 160L21.5 158.2C43 156.3 86 152.7 128.8 152.7C171.7 152.7 214.3 156.3 257.2 154.7C300 153 343 146 385.8 140.7C428.7 135.3 471.3 131.7 514.2 135.7C557 139.7 600 151.3 642.8 155.8C685.7 160.3 728.3 157.7 771.2 150.8C814 144 857 133 878.5 127.5L900 122L900 0L878.5 0C857 0 814 0 771.2 0C728.3 0 685.7 0 642.8 0C600 0 557 0 514.2 0C471.3 0 428.7 0 385.8 0C343 0 300 0 257.2 0C214.3 0 171.7 0 128.8 0C86 0 43 0 21.5 0L0 0Z" fill="#bc6800"></path><path d="M0 92L21.5 90.8C43 89.7 86 87.3 128.8 85.7C171.7 84 214.3 83 257.2 80.8C300 78.7 343 75.3 385.8 79.3C428.7 83.3 471.3 94.7 514.2 92.8C557 91 600 76 642.8 77C685.7 78 728.3 95 771.2 104C814 113 857 114 878.5 114.5L900 115L900 0L878.5 0C857 0 814 0 771.2 0C728.3 0 685.7 0 642.8 0C600 0 557 0 514.2 0C471.3 0 428.7 0 385.8 0C343 0 300 0 257.2 0C214.3 0 171.7 0 128.8 0C86 0 43 0 21.5 0L0 0Z" fill="#ab4903"></path><path d="M0 35L21.5 37C43 39 86 43 128.8 44.5C171.7 46 214.3 45 257.2 48.5C300 52 343 60 385.8 61.8C428.7 63.7 471.3 59.3 514.2 57.2C557 55 600 55 642.8 54.5C685.7 54 728.3 53 771.2 48C814 43 857 34 878.5 29.5L900 25L900 0L878.5 0C857 0 814 0 771.2 0C728.3 0 685.7 0 642.8 0C600 0 557 0 514.2 0C471.3 0 428.7 0 385.8 0C343 0 300 0 257.2 0C214.3 0 171.7 0 128.8 0C86 0 43 0 21.5 0L0 0Z" fill="#982709"></path></svg>